<svg xmlns="http://www.w3.org/2000/svg"  viewBox="0 0 100 100" width="100px" height="100px"><path d="M 48.53125 6.7734375 C 46.86425 6.7734375 45.241984 6.8798906 43.708984 7.0878906 C 41.695984 7.3878906 39.644656 8.3177344 37.472656 9.3027344 C 35.102656 10.376734 32.652375 11.488766 30.484375 11.634766 C 30.357375 11.643766 30.230422 11.662313 30.107422 11.695312 C 26.798422 12.569313 24.003328 14.666656 22.236328 17.597656 C 22.203328 17.652656 22.172531 17.708625 22.144531 17.765625 C 20.629531 20.924625 20.223047 24.546891 20.998047 27.962891 C 21.010047 28.015891 21.023063 28.066187 21.039062 28.117188 C 21.612063 29.944188 22.288359 31.718594 22.943359 33.433594 C 24.255359 36.870594 25.494844 40.116391 25.964844 43.775391 C 25.997844 44.033391 26.082938 44.283766 26.210938 44.509766 C 26.721937 45.407766 27.117109 46.778469 27.537109 48.230469 C 28.378109 51.140469 29.418109 54.738766 32.162109 57.634766 L 32.21875 59.957031 L 32.21875 59.988281 C 32.21875 61.093281 33.11375 61.988281 34.21875 61.988281 L 34.277344 61.988281 C 34.626344 61.988281 34.968484 61.898609 35.271484 61.724609 C 38.529484 59.858609 42.072734 58.697391 45.802734 58.275391 C 46.416734 58.220391 47.086047 58.191406 47.748047 58.191406 C 53.005047 58.191406 58.329266 60.046031 63.572266 63.707031 C 63.908266 63.941031 64.30875 64.068359 64.71875 64.068359 L 64.777344 64.068359 C 65.854344 64.068359 66.732391 63.216391 66.775391 62.150391 C 66.858391 61.666391 66.925516 61.175875 66.978516 60.671875 C 68.827516 59.530875 69.528719 56.487687 70.636719 51.054688 C 70.784719 50.329687 70.934844 49.595187 71.089844 48.867188 C 72.455844 45.809188 74.486219 42.981141 76.449219 40.244141 C 79.948219 35.367141 83.252578 30.761141 82.892578 25.119141 C 82.875578 24.847141 82.802687 24.582844 82.679688 24.339844 C 76.110687 11.428844 67.037109 9.5104687 62.162109 8.4804688 C 61.567109 8.3544688 61.051094 8.2457656 60.621094 8.1347656 C 60.575094 8.1227656 60.529422 8.1125156 60.482422 8.1035156 C 56.938422 7.4465156 52.74825 6.7734375 48.53125 6.7734375 z M 48.533203 8.7734375 C 52.390203 8.7734375 56.252141 9.3523125 60.119141 10.070312 C 61.605141 10.457313 63.804031 10.770766 66.332031 11.634766 C 66.246031 11.676766 66.171141 11.738219 66.119141 11.824219 C 62.696141 17.551219 60.453125 23.799484 59.453125 30.396484 C 58.577125 36.219484 58.282172 42.146344 58.576172 48.027344 C 58.569172 48.146344 58.563594 48.265766 58.558594 48.384766 C 57.774594 48.108766 56.949078 47.854812 56.080078 47.632812 C 54.875078 47.312812 53.646203 47.084687 52.408203 46.929688 C 52.377203 46.706688 52.347453 46.483766 52.314453 46.259766 C 52.262453 45.909766 52.210969 45.559141 52.167969 45.244141 L 52.140625 44.695312 C 51.992625 41.748312 51.8075 38.079688 51.9375 36.304688 C 51.9855 35.640687 52.034797 34.770141 52.091797 33.744141 C 52.418797 27.922141 53.027641 17.085906 55.306641 11.003906 C 55.364641 10.850906 55.301984 10.679922 55.208984 10.544922 C 55.019984 10.273922 54.52875 10.274828 54.34375 10.548828 C 47.62775 20.461828 49.534219 34.274547 51.074219 45.435547 C 51.129219 45.794547 51.181375 46.162203 51.234375 46.533203 L 51.273438 46.804688 C 49.313437 46.640687 47.337625 46.684594 45.390625 46.933594 C 44.930625 44.651594 44.532109 42.348594 44.162109 40.058594 L 44.248047 40.058594 L 44.248047 35.603516 C 44.380047 34.502516 44.543141 33.284766 44.744141 31.884766 C 44.783141 31.611766 44.593312 31.357359 44.320312 31.318359 C 44.046312 31.279359 43.792906 31.469188 43.753906 31.742188 C 43.749906 31.767187 43.748141 31.7875 43.744141 31.8125 L 43.328125 34.701172 C 42.620125 29.737172 41.299813 17.077578 42.882812 11.892578 C 43.069812 11.282578 43.387531 10.982219 44.019531 10.824219 C 44.498531 10.705219 44.988563 10.692953 45.476562 10.751953 C 46.590562 13.020953 45.496594 20.216359 44.433594 27.193359 C 44.391594 27.466359 44.580516 27.720719 44.853516 27.761719 C 44.878516 27.765719 44.904687 27.767578 44.929688 27.767578 C 45.172688 27.767578 45.385828 27.59175 45.423828 27.34375 C 46.571828 19.80875 47.650406 12.695313 46.316406 10.195312 C 46.316406 10.192312 46.318359 10.1895 46.318359 10.1875 C 46.318359 9.9635 46.169125 9.7670313 45.953125 9.7070312 C 45.258125 9.5120312 44.541406 9.4606875 43.816406 9.5546875 C 41.937406 9.8306875 40.60275 11.275094 39.84375 13.871094 C 39.15475 16.720094 38.921391 19.6455 39.150391 22.5625 C 39.710391 30.9425 41.408828 39.197094 44.173828 47.121094 C 43.953828 47.159094 43.731672 47.188422 43.513672 47.232422 C 41.961672 47.517422 40.449391 48.075234 39.025391 48.865234 C 36.152391 45.016234 36.022203 39.976844 35.908203 35.089844 C 35.872203 33.521844 35.827172 31.90775 35.701172 30.34375 C 35.703172 30.32975 35.709938 30.318687 35.710938 30.304688 C 35.986938 26.567687 36.059375 20.952906 35.859375 18.753906 C 35.834375 18.479906 35.601406 18.272781 35.316406 18.300781 C 35.041406 18.325781 34.838281 18.56875 34.863281 18.84375 C 34.989281 20.22475 35.002781 22.990484 34.925781 25.771484 C 33.669781 21.123484 31.331234 17.694359 30.490234 16.568359 C 30.480234 16.554359 30.469984 16.542297 30.458984 16.529297 C 30.174984 16.211297 30.030688 15.786156 30.054688 15.410156 C 30.076687 15.278156 30.148812 15.163891 30.257812 15.087891 C 30.429813 14.966891 30.632797 14.892953 30.841797 14.876953 C 31.424797 14.822953 32.598266 15.314859 33.197266 15.630859 C 33.442266 15.759859 33.743047 15.665875 33.873047 15.421875 C 34.002047 15.177875 33.908062 14.875094 33.664062 14.746094 C 33.479062 14.648094 31.837719 13.790859 30.761719 13.880859 C 30.374719 13.911859 30.001594 14.045531 29.683594 14.269531 C 29.358594 14.498531 29.1345 14.854922 29.0625 15.294922 C 29.0145 15.989922 29.2525 16.685016 29.6875 17.166016 C 31.8125 20.047016 32.251656 24.918109 32.722656 30.162109 C 33.287656 36.669109 33.943703 44.000313 38.095703 49.445312 C 36.986703 50.162312 35.935422 51.008047 34.982422 51.998047 C 32.497422 48.645047 31.767891 43.672078 31.087891 38.830078 C 30.822891 36.946078 30.549828 34.998063 30.173828 33.164062 C 30.081828 32.717062 29.997156 32.287609 29.910156 31.849609 C 29.723156 29.819609 29.415094 27.695359 29.121094 25.693359 C 28.664094 22.580359 28.231266 19.632375 28.447266 18.109375 C 28.551266 17.962375 28.572375 17.763797 28.484375 17.591797 C 28.037375 16.721797 27.511109 16.339406 27.037109 16.191406 C 27.026109 16.179406 27.020813 16.162344 27.007812 16.152344 C 26.898812 16.057344 26.754328 16.013156 26.611328 16.035156 C 26.422328 16.061156 26.241594 16.122688 26.058594 16.179688 C 26.015594 16.190687 25.971688 16.192078 25.929688 16.205078 C 27.248688 14.988078 28.853141 14.097859 30.619141 13.630859 C 35.199141 13.320859 40.158516 9.6403125 43.978516 9.0703125 C 45.495516 8.8643125 47.014203 8.7734375 48.533203 8.7734375 z M 66.976562 11.865234 C 71.384562 13.506234 76.658438 16.917 80.898438 25.25 C 81.408438 33.25 72.959688 39.6 69.179688 48.25 C 68.302688 52.324 67.604234 56.636656 66.490234 58.347656 C 66.502234 57.130656 66.433625 55.912172 66.265625 54.701172 C 66.089625 52.559172 63.534234 50.35525 59.615234 48.78125 C 59.615234 48.77425 59.617187 48.768719 59.617188 48.761719 C 59.603187 48.518719 59.591125 48.276203 59.578125 48.033203 C 59.763125 45.038203 60.313656 41.881313 60.847656 38.820312 C 61.297656 36.241312 61.762953 33.574547 62.001953 31.060547 C 62.632953 27.720547 63.540969 25.05075 64.417969 22.46875 C 65.492969 19.30275 66.507922 16.313328 67.044922 12.236328 C 67.047922 12.214328 67.048828 12.102078 67.048828 12.080078 C 67.048828 12.000078 67.010562 11.933234 66.976562 11.865234 z M 41.839844 11.900391 C 40.252844 17.713391 41.726406 30.885781 42.441406 35.550781 C 42.720406 37.366781 43.004594 39.211453 43.308594 41.064453 C 41.627594 35.005453 40.566484 28.783234 40.146484 22.490234 C 39.925484 19.673234 40.150594 16.852859 40.808594 14.130859 C 41.076594 13.213859 41.421844 12.470391 41.839844 11.900391 z M 53.220703 14.634766 C 51.815703 20.843766 51.36075 28.928453 51.09375 33.689453 C 51.03875 34.666453 50.992266 35.502437 50.947266 36.148438 C 50.270266 28.798437 50.337703 21.098766 53.220703 14.634766 z M 65.603516 14.787109 C 65.049516 17.495109 64.277703 19.771484 63.470703 22.146484 C 62.582703 24.761484 61.664672 27.465922 61.013672 30.919922 C 60.771672 33.440922 60.309281 36.087437 59.863281 38.648438 C 59.747281 39.313437 59.629625 39.982297 59.515625 40.654297 C 59.629625 37.268297 59.939359 33.889922 60.443359 30.544922 C 61.283359 25.006922 63.014516 19.718109 65.603516 14.787109 z M 34.591797 15.646484 C 34.463797 15.638734 34.331516 15.680484 34.228516 15.771484 C 34.021516 15.954484 34.002547 16.269562 34.185547 16.476562 C 34.254547 16.555563 34.321719 16.63675 34.386719 16.71875 C 34.485719 16.84375 34.630297 16.910156 34.779297 16.910156 C 34.887297 16.910156 34.997844 16.874734 35.089844 16.802734 C 35.306844 16.631734 35.343828 16.318563 35.173828 16.101562 C 35.097828 16.004562 35.018547 15.908453 34.935547 15.814453 C 34.844547 15.710453 34.719797 15.654234 34.591797 15.646484 z M 26.662109 17.138672 C 26.954109 17.198672 27.229516 17.425844 27.478516 17.839844 C 27.277516 19.024844 27.446187 20.888516 27.742188 23.103516 C 27.363187 22.229516 26.931578 21.525266 26.392578 21.072266 C 26.093578 20.689266 25.6805 20.456 25.3125 20.25 C 24.5965 19.848 24.379859 19.727609 24.755859 18.974609 C 25.043859 18.456609 25.375188 17.958187 25.742188 17.492188 C 26.019188 17.311187 26.335109 17.195672 26.662109 17.138672 z M 76.285156 20.419922 C 72.208156 21.278922 65.847047 36.391406 65.748047 48.316406 C 65.746047 48.557406 65.917297 48.764547 66.154297 48.810547 C 66.186297 48.816547 66.218 48.820312 66.25 48.820312 C 66.452 48.820312 66.637844 48.697906 66.714844 48.503906 C 70.027844 40.092906 73.783234 30.559453 76.865234 21.064453 C 76.920234 20.895453 76.881719 20.707219 76.761719 20.574219 C 76.641719 20.441219 76.458156 20.381922 76.285156 20.419922 z M 24.058594 20.609375 C 24.295594 20.826375 24.580266 20.984094 24.822266 21.121094 C 25.145266 21.303094 25.450047 21.475844 25.623047 21.714844 C 25.649047 21.750844 25.680844 21.782547 25.714844 21.810547 C 27.143844 22.961547 27.868984 26.658453 28.708984 30.939453 C 28.863984 31.729453 29.022406 32.542187 29.191406 33.367188 C 29.560406 35.170187 29.832703 37.101703 30.095703 38.970703 C 30.290703 40.358703 30.487562 41.757812 30.726562 43.132812 C 29.725562 39.819812 29.008188 36.318641 28.367188 33.181641 C 27.255188 27.731641 26.293469 23.017484 24.355469 21.396484 C 24.204469 21.177484 24.104406 20.927312 24.066406 20.695312 C 24.063406 20.666313 24.060594 20.638375 24.058594 20.609375 z M 23.101562 20.912109 C 23.180563 21.316109 23.341891 21.705109 23.587891 22.037109 C 23.613891 22.072109 23.643734 22.103859 23.677734 22.130859 C 25.370734 23.481859 26.350672 28.289859 27.388672 33.380859 C 28.717672 39.882859 30.372187 47.913797 34.242188 52.841797 C 33.735188 53.436797 33.248594 54.057563 32.808594 54.726562 C 32.752594 54.811563 32.724563 54.911672 32.726562 55.013672 L 32.730469 55.189453 C 29.808469 51.301453 29.532219 46.302484 27.949219 43.521484 C 27.199219 37.691484 24.619219 32.851484 22.949219 27.521484 C 22.451219 25.327484 22.512563 23.057109 23.101562 20.912109 z M 75.523438 21.945312 C 72.872438 29.969312 69.769531 37.999453 66.894531 45.314453 C 67.789531 34.992453 72.553438 24.470312 75.523438 21.945312 z M 32.833984 22.748047 C 33.708984 24.832047 34.466547 27.358391 34.685547 30.150391 C 34.828547 31.771391 34.86825 33.469281 34.90625 35.113281 C 34.94925 36.940281 34.992781 38.789656 35.175781 40.597656 C 34.329781 37.128656 34.009984 33.452281 33.708984 29.988281 C 33.480984 27.450281 33.258984 24.979047 32.833984 22.748047 z M 44.648438 29.113281 C 44.374437 29.073281 44.121078 29.260203 44.080078 29.533203 L 43.982422 30.195312 C 43.942422 30.468312 44.130297 30.721719 44.404297 30.761719 C 44.428297 30.765719 44.452563 30.767578 44.476562 30.767578 C 44.720562 30.767578 44.934703 30.587844 44.970703 30.339844 L 45.068359 29.683594 C 45.109359 29.410594 44.921437 29.154281 44.648438 29.113281 z M 48.253906 47.712891 C 50.803887 47.649834 53.364375 47.947188 55.828125 48.601562 C 61.127125 49.951563 65.098531 52.555922 65.269531 54.794922 C 65.270531 54.804922 65.272438 54.814219 65.273438 54.824219 C 65.585437 57.070219 65.574328 59.340484 65.236328 61.646484 C 59.440328 57.739484 53.547063 55.767578 47.664062 55.767578 C 46.875062 55.767578 46.086828 55.803047 45.298828 55.873047 C 41.257828 56.330047 37.40775 57.540703 33.84375 59.470703 L 33.730469 55.144531 C 36.169469 51.502531 39.882219 48.917797 43.699219 48.216797 C 45.196969 47.918297 46.723918 47.750725 48.253906 47.712891 z M 37.529297 62.429688 C 37.134297 62.429688 36.744156 62.546484 36.410156 62.771484 L 35.580078 63.330078 C 34.700078 63.924078 34.438422 65.102672 34.982422 66.013672 C 35.457422 66.809672 36.063156 67.506891 36.785156 68.087891 C 36.846156 68.136891 36.909562 68.182609 36.976562 68.224609 C 37.374563 68.474609 37.810719 68.648719 38.261719 68.761719 C 38.247719 68.774719 38.23275 68.789734 38.21875 68.802734 C 37.07075 69.929734 36.575812 71.529562 36.882812 73.101562 C 37.036813 74.306562 37.520156 75.438766 38.285156 76.384766 C 39.130156 77.490766 40.459516 78.148437 41.853516 78.148438 C 42.738516 78.133437 43.5765 77.905234 44.3125 77.490234 C 44.3275 77.481234 44.342422 77.473844 44.357422 77.464844 C 45.398422 76.839844 46.636969 75.517625 46.667969 72.765625 C 46.794969 71.363625 46.337734 69.960484 45.427734 68.896484 C 45.721734 68.880484 46.018016 68.80825 46.291016 68.65625 L 47.082031 68.216797 C 47.716031 67.863797 48.109375 67.195703 48.109375 66.470703 C 48.109375 66.086703 47.999016 65.690188 47.791016 65.367188 C 47.330016 64.651188 46.757844 64.021187 46.089844 63.492188 C 46.057844 63.466187 46.024234 63.441969 45.990234 63.417969 C 45.267234 62.914969 44.421016 62.648437 43.541016 62.648438 L 43.494141 62.648438 L 43.472656 62.648438 C 43.082656 62.648438 42.701844 62.720328 42.339844 62.861328 L 39.521484 63.800781 C 39.425484 63.688781 39.340578 63.5675 39.267578 63.4375 C 38.991578 62.9535 38.526375 62.607469 37.984375 62.480469 C 37.834375 62.445469 37.681297 62.429688 37.529297 62.429688 z M 68.5 64.416016 C 68.351 64.416016 68.202687 64.425359 68.054688 64.443359 C 67.315687 64.521359 66.623094 64.871969 66.121094 65.417969 C 65.626094 65.888969 65.302359 66.502734 65.193359 67.177734 C 65.111359 67.573734 65.135672 67.989047 65.263672 68.373047 C 65.355672 68.650047 65.506031 68.903234 65.707031 69.115234 C 66.602031 70.061234 67.74 70.731641 69 71.056641 C 69.726 71.279641 70.424937 71.488688 71.085938 71.679688 C 71.012938 71.736688 70.936422 71.795422 70.857422 71.857422 C 70.610422 72.050422 70.327 72.271531 70 72.519531 C 69.981 72.533531 69.963313 72.5475 69.945312 72.5625 C 69.435312 72.9795 68.885547 73.352828 68.310547 73.673828 C 67.471547 74.063828 66.727391 74.649094 66.150391 75.371094 C 66.150391 75.371094 66.148438 75.373047 66.148438 75.373047 C 65.641437 75.956047 65.392313 76.699797 65.445312 77.466797 C 65.497313 78.216797 65.831672 78.902297 66.388672 79.404297 C 66.945672 79.924297 67.671547 80.210937 68.435547 80.210938 C 68.449547 80.210938 68.478188 80.211938 68.492188 80.210938 C 68.989187 80.200937 69.486781 80.071844 69.925781 79.839844 C 69.970781 79.815844 70.013641 79.790672 70.056641 79.763672 C 71.410641 78.909672 72.726797 77.962219 73.966797 76.949219 C 75.109797 76.002219 76.301437 75.113922 77.523438 74.294922 C 79.165437 73.275922 79.511719 72.072234 79.511719 71.240234 C 79.511719 71.191234 79.508859 71.14275 79.505859 71.09375 C 79.438859 70.22175 78.992922 69.417391 78.294922 68.900391 C 76.585922 67.385391 74.539328 66.224109 72.361328 65.537109 L 71.066406 64.976562 C 70.399406 64.673563 69.661391 64.4875 68.900391 64.4375 C 68.767391 64.4225 68.633 64.416016 68.5 64.416016 z M 37.529297 64.429688 C 37.768297 64.848687 38.075453 65.223062 38.439453 65.539062 C 38.699453 65.724063 39.009172 65.824219 39.326172 65.824219 C 39.363172 65.824219 39.402453 65.823312 39.439453 65.820312 C 39.458453 65.821313 39.477094 65.820312 39.496094 65.820312 C 39.676094 65.820312 39.857297 65.794234 40.029297 65.740234 L 43.029297 64.740234 C 43.169297 64.680234 43.320656 64.650391 43.472656 64.650391 L 43.498047 64.650391 L 43.541016 64.650391 C 44.008016 64.650391 44.465609 64.793547 44.849609 65.060547 C 45.343609 65.451547 45.768375 65.919219 46.109375 66.449219 L 46.109375 66.470703 L 45.318359 66.910156 C 45.071359 66.532156 44.768922 66.195156 44.419922 65.910156 C 44.190922 65.758156 43.921438 65.677734 43.648438 65.677734 C 43.618437 65.677734 43.588594 65.677687 43.558594 65.679688 C 43.357594 65.679688 43.15675 65.716062 42.96875 65.789062 L 40.199219 66.789062 C 39.955219 66.860062 39.703219 66.898391 39.449219 66.900391 C 39.411219 66.902391 39.373938 66.902344 39.335938 66.902344 C 38.877938 66.902344 38.428062 66.773297 38.039062 66.529297 C 37.504063 66.099297 37.051219 65.579234 36.699219 64.990234 L 37.529297 64.429688 z M 28.386719 64.529297 C 27.953719 64.529297 27.532547 64.671641 27.185547 64.931641 C 26.048547 65.785641 24.803375 66.484672 23.484375 67.013672 C 21.850375 67.686672 20.313391 68.544266 18.900391 69.572266 C 18.846391 69.611266 18.794141 69.655219 18.744141 69.699219 C 17.706141 70.627219 17.098172 71.957609 17.076172 73.349609 C 17.073172 73.512609 17.091906 73.675937 17.128906 73.835938 C 17.350906 74.785938 18.024688 75.571547 18.929688 75.935547 C 18.967688 75.950547 19.005922 75.963562 19.044922 75.976562 C 19.274922 76.053562 19.512187 76.148187 19.742188 76.242188 C 22.328187 77.340187 24.814328 78.544453 27.111328 79.814453 C 27.317328 79.970453 27.515219 80.140313 27.699219 80.320312 C 27.872219 80.489312 28.073922 80.625656 28.294922 80.722656 C 28.730922 80.913656 29.193922 81.009766 29.669922 81.009766 C 30.620922 81.009766 31.527 80.692281 32.25 80.113281 C 33.155 79.436281 33.645594 78.349516 33.558594 77.228516 C 33.537594 76.119516 32.862078 75.119453 31.830078 74.689453 L 27.712891 72.878906 C 27.331891 72.716906 26.954078 72.548047 26.580078 72.373047 C 26.722078 72.314047 26.867625 72.261844 27.015625 72.214844 C 28.662625 71.684844 30.149406 70.839219 31.441406 69.699219 C 31.462406 69.681219 31.483906 69.662578 31.503906 69.642578 C 32.053906 69.114578 32.364422 68.374328 32.357422 67.611328 C 32.336422 66.672328 31.9105 65.829438 31.1875 65.273438 C 30.5645 64.793437 29.785094 64.529297 28.996094 64.529297 C 28.983094 64.529297 28.942687 64.528297 28.929688 64.529297 L 28.386719 64.529297 z M 68.498047 66.414062 C 68.571047 66.414062 68.64575 66.419687 68.71875 66.429688 C 69.25475 66.459688 69.780531 66.588547 70.269531 66.810547 L 71.662109 67.414062 C 73.658109 68.028063 75.495828 69.072703 77.048828 70.470703 C 77.314828 70.640703 77.486766 70.925234 77.509766 71.240234 C 77.509766 71.710234 77.159453 72.169375 76.439453 72.609375 C 75.146453 73.475375 73.897219 74.407391 72.699219 75.400391 C 71.518219 76.365391 70.278281 77.257313 68.988281 78.070312 C 68.821281 78.158312 68.637219 78.206938 68.449219 78.210938 L 68.433594 78.210938 C 68.174594 78.210938 67.924281 78.109688 67.738281 77.929688 C 67.371281 77.610687 67.333344 77.0545 67.652344 76.6875 C 67.660344 76.6775 67.670687 76.669156 67.679688 76.660156 C 68.083687 76.140156 68.607984 75.728937 69.208984 75.460938 C 69.914984 75.072937 70.584984 74.619375 71.208984 74.109375 C 72.208984 73.349375 72.808984 72.839375 73.208984 72.609375 C 73.998984 72.209375 74.408203 71.929766 74.408203 71.759766 C 74.417203 71.723766 74.417203 71.686391 74.408203 71.650391 C 73.915203 70.838391 73.149047 70.228687 72.248047 69.929688 C 71.358047 69.679688 70.449062 69.410859 69.539062 69.130859 C 68.629063 68.903859 67.802203 68.421234 67.158203 67.740234 C 67.137203 67.678234 67.137203 67.612781 67.158203 67.550781 C 67.190203 67.266781 67.330828 67.005312 67.548828 66.820312 C 67.728828 66.596312 67.993297 66.455687 68.279297 66.429688 C 68.352297 66.419687 68.424047 66.414063 68.498047 66.414062 z M 71.662109 67.414062 C 71.634109 67.405062 71.605125 67.398625 71.578125 67.390625 L 71.71875 67.439453 L 71.662109 67.414062 z M 28.388672 66.529297 L 28.96875 66.529297 L 28.998047 66.529297 C 29.349047 66.529297 29.69075 66.645375 29.96875 66.859375 C 30.20875 67.043375 30.352375 67.328859 30.359375 67.630859 C 30.361375 67.845859 30.274141 68.050219 30.119141 68.199219 C 29.041141 69.150219 27.777203 69.869547 26.408203 70.310547 C 25.031203 70.748547 23.813203 71.583937 22.908203 72.710938 C 24.199203 73.459937 25.534203 74.127938 26.908203 74.710938 L 31.048828 76.529297 C 31.369828 76.657297 31.574594 76.975313 31.558594 77.320312 C 31.617594 77.790313 31.414297 78.254297 31.029297 78.529297 C 30.654297 78.839297 30.182312 79.009766 29.695312 79.009766 L 29.679688 79.009766 L 29.671875 79.009766 C 29.474875 79.009766 29.279609 78.969625 29.099609 78.890625 C 28.818609 78.615625 28.517219 78.361859 28.199219 78.130859 C 25.799219 76.797859 23.231047 75.550625 20.498047 74.390625 C 20.228047 74.280625 19.949687 74.170078 19.679688 74.080078 C 19.377688 73.958078 19.152125 73.697859 19.078125 73.380859 C 19.091125 72.542859 19.453125 71.747453 20.078125 71.189453 C 21.364125 70.253453 22.757516 69.475141 24.228516 68.869141 C 25.711516 68.275141 27.110672 67.488297 28.388672 66.529297 z M 57.222656 67.357422 C 55.946656 67.357422 54.725156 67.832313 53.785156 68.695312 L 53.730469 68.746094 C 52.591469 69.874094 52.102156 71.470109 52.410156 73.037109 C 52.559156 74.249109 53.044359 75.384078 53.818359 76.330078 C 54.665359 77.432078 55.995719 78.089844 57.386719 78.089844 C 58.265719 78.076844 59.106703 77.847734 59.845703 77.427734 C 59.906703 77.393734 59.964484 77.356406 60.021484 77.316406 C 61.579484 76.202406 62.409125 74.340406 62.203125 72.441406 C 62.115125 70.435406 61.508516 69.066766 60.353516 68.259766 C 59.455516 67.660766 58.454922 67.357422 57.419922 67.357422 L 57.347656 67.359375 C 57.305656 67.358375 57.264656 67.357422 57.222656 67.357422 z M 57.222656 69.357422 C 57.257656 69.357422 57.292125 69.358375 57.328125 69.359375 C 57.358125 69.358375 57.389922 69.359375 57.419922 69.359375 C 58.055922 69.359375 58.677984 69.547391 59.208984 69.900391 C 59.838984 70.340391 60.158984 71.249609 60.208984 72.599609 C 60.360984 73.799609 59.843375 74.986453 58.859375 75.689453 C 58.410375 75.944453 57.904672 76.081844 57.388672 76.089844 C 56.601672 76.089844 55.860672 75.719844 55.388672 75.089844 C 54.828672 74.415844 54.480672 73.591703 54.388672 72.720703 C 54.183672 71.798703 54.466672 70.834922 55.138672 70.169922 C 55.707672 69.646922 56.452656 69.357422 57.222656 69.357422 z M 41.691406 69.427734 C 41.730406 69.427734 41.769594 69.428688 41.808594 69.429688 C 41.843594 69.428687 41.878109 69.427734 41.912109 69.427734 C 42.542109 69.427734 43.161453 69.612937 43.689453 69.960938 C 44.421453 70.656937 44.784922 71.656156 44.669922 72.660156 C 44.669922 74.190156 44.228125 75.21 43.328125 75.75 C 42.879125 76.004 42.375375 76.141391 41.859375 76.150391 L 41.853516 76.150391 C 41.068516 76.150391 40.329375 75.779391 39.859375 75.150391 C 39.304375 74.473391 38.957375 73.649297 38.859375 72.779297 C 38.657375 71.855297 38.944141 70.893469 39.619141 70.230469 C 40.187141 69.713469 40.926406 69.427734 41.691406 69.427734 z M 41.769531 71.580078 A 1 1 0 0 0 41.769531 73.580078 A 1 1 0 0 0 41.769531 71.580078 z M 57.009766 71.689453 A 1 1 0 0 0 57.009766 73.689453 A 1 1 0 0 0 57.009766 71.689453 z M 47.318359 76.707031 C 46.786359 76.707031 46.271578 76.920641 45.892578 77.306641 C 45.669578 77.533641 45.493719 77.811328 45.386719 78.111328 C 45.308719 78.327328 45.269531 78.557109 45.269531 78.787109 L 45.269531 78.867188 C 45.269531 79.096187 45.309719 79.323062 45.386719 79.539062 C 45.513719 79.896062 45.675562 80.241125 45.851562 80.578125 C 45.598562 80.553125 45.341219 80.535156 45.074219 80.535156 C 44.907219 80.535156 44.735547 80.541781 44.560547 80.550781 C 42.781547 80.643781 41.350844 81.41375 40.089844 82.09375 C 39.030844 82.66475 38.117125 83.158203 37.203125 83.158203 C 36.294125 83.158203 35.264641 82.658813 34.056641 81.632812 C 33.689641 81.320813 33.228719 81.15625 32.761719 81.15625 C 32.530719 81.15625 32.298219 81.197297 32.074219 81.279297 C 31.398219 81.526297 30.906109 82.118125 30.787109 82.828125 C 30.167109 86.538125 31.376047 88.897656 32.498047 90.222656 C 34.203047 92.235656 37.008313 93.390625 40.195312 93.390625 C 43.261313 93.390625 46.279578 92.321203 48.267578 90.533203 C 48.782578 90.070203 49.246766 89.526594 49.634766 88.933594 C 50.015766 89.497594 50.486828 90.038063 51.048828 90.539062 C 53.031828 92.322063 56.049234 93.390625 59.115234 93.390625 C 62.302234 93.390625 65.1075 92.235656 66.8125 90.222656 C 67.9345 88.897656 69.143437 86.537172 68.523438 82.826172 C 68.403438 82.120172 67.912328 81.52825 67.236328 81.28125 C 67.012328 81.19925 66.779828 81.160156 66.548828 81.160156 C 66.081828 81.160156 65.620906 81.324719 65.253906 81.636719 C 64.045906 82.662719 63.016422 83.160156 62.107422 83.160156 C 61.193422 83.160156 60.278703 82.668656 59.220703 82.097656 C 58.002703 81.440656 56.624781 80.705312 54.925781 80.570312 C 54.963781 80.494313 55.011875 80.424656 55.046875 80.347656 C 55.163875 80.097656 55.258078 79.835359 55.330078 79.568359 C 55.376078 79.399359 55.400391 79.224828 55.400391 79.048828 L 55.400391 78.958984 C 55.400391 78.600984 55.304047 78.250359 55.123047 77.943359 C 54.813047 77.349359 54.221922 76.945906 53.544922 76.878906 C 53.479922 76.872906 53.414609 76.867188 53.349609 76.867188 C 52.677609 76.867188 52.044828 77.207344 51.673828 77.777344 C 51.532828 77.994344 51.356344 78.185703 51.152344 78.345703 C 51.105344 78.382703 51.061578 78.421891 51.017578 78.462891 C 50.932578 78.542891 50.832656 78.601625 50.722656 78.640625 C 50.580656 78.689625 50.420813 78.716797 50.257812 78.716797 L 50.214844 78.716797 L 50.183594 78.716797 L 50.181641 78.716797 C 50.038641 78.716797 49.917781 78.698109 49.800781 78.662109 C 49.768781 78.652109 49.721781 78.627703 49.675781 78.595703 C 49.573781 78.510703 49.479437 78.414547 49.398438 78.310547 C 49.308437 78.188547 49.207047 78.01975 49.123047 77.84375 C 48.841047 77.25575 48.290484 76.841375 47.646484 76.734375 C 47.537484 76.716375 47.427359 76.707031 47.318359 76.707031 z M 47.318359 78.710938 C 47.458359 79.002938 47.625359 79.279063 47.818359 79.539062 C 48.002359 79.776062 48.215219 79.991687 48.449219 80.179688 C 48.681219 80.355688 48.94075 80.491078 49.21875 80.580078 C 49.52475 80.673078 49.842109 80.720703 50.162109 80.720703 L 50.21875 80.720703 L 50.257812 80.720703 C 50.642812 80.720703 51.024672 80.65725 51.388672 80.53125 C 51.760672 80.40025 52.101672 80.192875 52.388672 79.921875 C 52.763672 79.626875 53.089609 79.271094 53.349609 78.871094 C 53.362609 78.903094 53.378438 78.932937 53.398438 78.960938 L 53.398438 79.050781 C 53.355438 79.208781 53.299516 79.363719 53.228516 79.511719 C 53.137516 79.716719 53.030203 79.913562 52.908203 80.101562 C 52.780203 80.314562 52.63375 80.515172 52.46875 80.701172 C 52.29375 80.896172 52.102438 81.076234 51.898438 81.240234 C 51.682437 81.396234 51.447219 81.524094 51.199219 81.621094 C 50.944219 81.720094 50.673391 81.771484 50.400391 81.771484 L 50.388672 81.771484 L 50.349609 81.730469 C 50.005609 81.719469 49.666609 81.645719 49.349609 81.511719 C 49.028609 81.353719 48.736281 81.139859 48.488281 80.880859 C 48.212281 80.612859 47.977063 80.305703 47.789062 79.970703 C 47.580062 79.621703 47.406531 79.254094 47.269531 78.871094 L 47.269531 78.789062 C 47.280531 78.759062 47.296359 78.733937 47.318359 78.710938 z M 45.072266 82.539062 C 46.998266 82.539062 48.184281 83.346469 48.613281 84.480469 C 48.470281 85.159469 48.477141 85.862453 48.619141 86.564453 C 48.357141 87.404453 47.804687 88.269781 46.929688 89.050781 C 45.251688 90.559781 42.688359 91.392578 40.193359 91.392578 C 35.895359 91.392578 31.797766 88.918156 32.759766 83.160156 C 34.509766 84.646156 35.939172 85.160156 37.201172 85.160156 C 39.964172 85.160156 41.923922 82.694781 44.669922 82.550781 C 44.807922 82.542781 44.941266 82.539062 45.072266 82.539062 z M 54.234375 82.539062 C 54.365375 82.539062 54.500672 82.543781 54.638672 82.550781 C 57.384672 82.694781 59.343422 85.160156 62.107422 85.160156 C 63.369422 85.160156 64.799828 84.646156 66.548828 83.160156 C 67.510828 88.919156 63.411281 91.392578 59.113281 91.392578 C 56.619281 91.392578 54.056906 90.559781 52.378906 89.050781 C 49.314906 86.316781 50.057375 82.538062 54.234375 82.539062 z"/></svg>